<svg width="25" height="24" viewBox="0 0 25 24" fill="none" xmlns="http://www.w3.org/2000/svg">
<path d="M21.25 10C21.25 17 12.25 23 12.25 23C12.25 23 3.25 17 3.25 10C3.25 7.61305 4.19821 5.32387 5.88604 3.63604C7.57387 1.94821 9.86305 1 12.25 1C14.6369 1 16.9261 1.94821 18.614 3.63604C20.3018 5.32387 21.25 7.61305 21.25 10Z" stroke="white" stroke-width="2" stroke-linecap="round" stroke-linejoin="round"/>
<path d="M12.25 13C13.9069 13 15.25 11.6569 15.25 10C15.25 8.34315 13.9069 7 12.25 7C10.5931 7 9.25 8.34315 9.25 10C9.25 11.6569 10.5931 13 12.25 13Z" stroke="white" stroke-width="2" stroke-linecap="round" stroke-linejoin="round"/>
</svg>
