<svg width="25" height="24" viewBox="0 0 25 24" fill="none" xmlns="http://www.w3.org/2000/svg">
<path d="M22.2494 16.9201V19.9201C22.2506 20.1986 22.1935 20.4743 22.082 20.7294C21.9704 20.9846 21.8067 21.2137 21.6015 21.402C21.3963 21.5902 21.154 21.7336 20.8902 21.8228C20.6264 21.912 20.3468 21.9452 20.0694 21.9201C16.9923 21.5857 14.0364 20.5342 11.4394 18.8501C9.02327 17.3148 6.97478 15.2663 5.43945 12.8501C3.74942 10.2413 2.69769 7.27109 2.36944 4.1801C2.34446 3.90356 2.37732 3.62486 2.46595 3.36172C2.55457 3.09859 2.69702 2.85679 2.88421 2.65172C3.07141 2.44665 3.29925 2.28281 3.55324 2.17062C3.80722 2.05843 4.08179 2.00036 4.35945 2.0001H7.35945C7.84475 1.99532 8.31524 2.16718 8.68321 2.48363C9.05118 2.80008 9.29152 3.23954 9.35944 3.7201C9.48607 4.68016 9.72089 5.62282 10.0594 6.5301C10.194 6.88802 10.2231 7.27701 10.1434 7.65098C10.0636 8.02494 9.87831 8.36821 9.60944 8.6401L8.33945 9.9101C9.763 12.4136 11.8359 14.4865 14.3394 15.9101L15.6094 14.6401C15.8813 14.3712 16.2246 14.1859 16.5986 14.1062C16.9725 14.0264 17.3615 14.0556 17.7194 14.1901C18.6267 14.5286 19.5694 14.7635 20.5294 14.8901C21.0152 14.9586 21.4588 15.2033 21.776 15.5776C22.0931 15.9519 22.2616 16.4297 22.2494 16.9201Z" stroke="white" stroke-width="2" stroke-linecap="round" stroke-linejoin="round"/>
</svg>
