<svg width="25" height="24" viewBox="0 0 25 24" fill="none" xmlns="http://www.w3.org/2000/svg">
<path d="M18.25 8C19.9069 8 21.25 6.65685 21.25 5C21.25 3.34315 19.9069 2 18.25 2C16.5931 2 15.25 3.34315 15.25 5C15.25 6.65685 16.5931 8 18.25 8Z" stroke="white" stroke-width="2" stroke-linecap="round" stroke-linejoin="round"/>
<path d="M6.25 15C7.90685 15 9.25 13.6569 9.25 12C9.25 10.3431 7.90685 9 6.25 9C4.59315 9 3.25 10.3431 3.25 12C3.25 13.6569 4.59315 15 6.25 15Z" stroke="white" stroke-width="2" stroke-linecap="round" stroke-linejoin="round"/>
<path d="M18.25 22C19.9069 22 21.25 20.6569 21.25 19C21.25 17.3431 19.9069 16 18.25 16C16.5931 16 15.25 17.3431 15.25 19C15.25 20.6569 16.5931 22 18.25 22Z" stroke="white" stroke-width="2" stroke-linecap="round" stroke-linejoin="round"/>
<path d="M8.83984 13.5098L15.6698 17.4898" stroke="white" stroke-width="2" stroke-linecap="round" stroke-linejoin="round"/>
<path d="M15.6598 6.50977L8.83984 10.4898" stroke="white" stroke-width="2" stroke-linecap="round" stroke-linejoin="round"/>
</svg>
