<svg width="21" height="20" viewBox="0 0 21 20" fill="none" xmlns="http://www.w3.org/2000/svg">
<path d="M19.2499 10.79C19.0926 12.4922 18.4538 14.1144 17.4081 15.4668C16.3625 16.8192 14.9534 17.8458 13.3456 18.4265C11.7378 19.0073 9.99789 19.1181 8.3294 18.7461C6.66092 18.3741 5.1329 17.5345 3.92413 16.3258C2.71536 15.117 1.87584 13.589 1.50381 11.9205C1.13178 10.252 1.24262 8.51208 1.82336 6.9043C2.40411 5.29651 3.43073 3.88737 4.78311 2.84175C6.1355 1.79614 7.7577 1.15731 9.4599 1C8.46331 2.34827 7.98375 4.00945 8.10843 5.68141C8.23312 7.35338 8.95376 8.92506 10.1393 10.1106C11.3248 11.2961 12.8965 12.0168 14.5685 12.1415C16.2405 12.2662 17.9016 11.7866 19.2499 10.79Z" stroke="white" stroke-width="2" stroke-linecap="round" stroke-linejoin="round"/>
</svg>
